# xmcd
#
# Track frame offsets: 
#        150
#        15242
#        33535
#        46840
#        67125
#        81229
#        107128
#        131881
#        152987
#        169925
#        183019
#        203102
#        220934
#        233737
#        252948
#        273885
#        290750
#        304123
#        319234
#
# Disc length: 4604 seconds
#
# Revision: 1
# Processed by: cddbd v1.5.2PL0 Copyright (c) Steve Scherf et al.
# Submitted via: ExactAudioCopy v0.95b4
#
DISCID=1411fa13
DTITLE=Various Artist - 100% Entspannt Summer Edition CD2
DYEAR=2006
DGENRE=Pop
TTITLE0=Norah Jones - Sunrise
TTITLE1=James Blunt - High (Album Version)
TTITLE2=Dionne Warwick - Walk On By (Album Version)
TTITLE3=De-Phazz - Excursion En Mer
TTITLE4=Turin Brakes - They Can't Buy The Sunshine
TTITLE5=Working Week - Inner City Blues
TTITLE6=Zero 7 - Warm Sound (Album Version)
TTITLE7=Anna Maria Jopek - Don't Speak (Album Version)
TTITLE8=Sting and Antonio Carlos Jobim - How Insensitive
TTITLE9=Coralie Clement - La Contradiction
TTITLE10=Cassandra Wilson - Waters Of March (Águas de Marco)
TTITLE11=Compay Segundo - La Negra Tomasa
TTITLE12=Laura Lopez Castro - Mi amor Ileva una espina
TTITLE13=Everything But The Girl - I Don't Want To Talk About It
TTITLE14=Guru Featuring Donald Byrd - Loungin`
TTITLE15=Emiliana Torrini - Unemployed In The Summertime
TTITLE16=Lizz Wright /I`m Confessin`
TTITLE17=Wilco - Someone Else's Song (LP Version)
TTITLE18=Gordon Haskell - Roll With It
EXTD=
EXTT0=
EXTT1=
EXTT2=
EXTT3=
EXTT4=
EXTT5=
EXTT6=
EXTT7=
EXTT8=
EXTT9=
EXTT10=
EXTT11=
EXTT12=
EXTT13=
EXTT14=
EXTT15=
EXTT16=
EXTT17=
EXTT18=
PLAYORDER=
